<svg xmlns="http://www.w3.org/2000/svg" width="121" height="112.641" viewBox="0 0 121 112.641">
  <g id="Grupo_7" data-name="Grupo 7" transform="translate(-1 -1)">
    <path id="Caminho_1" data-name="Caminho 1" d="M28.647,69.551h0a.573.573,0,0,0-.051-.145q.148-1.833.3-3.667a.629.629,0,0,0-.519-.657q.156-.312.342-.619a.631.631,0,0,0,.086-.251l.218-.011a38.544,38.544,0,0,1-.377,5.349M25.684,94.63h0c-.018-.167-.036-.333-.052-.5a.7.7,0,0,0,.25-.087,2.578,2.578,0,0,0,.307.591C26.021,94.629,25.852,94.629,25.684,94.63Zm-15.1-.185h0a.414.414,0,0,0,.146-.194q1.668.173,3.339.252a.742.742,0,0,0,.1.307Q12.372,94.681,10.584,94.445ZM6.3,93.518h0a12.421,12.421,0,0,0,1.353.262c.1.087.2.171.3.255-.59-.1-1.177-.213-1.764-.333A.6.6,0,0,0,6.3,93.518ZM7.612,68.855h0c-.048.009-.1.015-.143.025A.565.565,0,0,0,7.335,69.9l.067.038-.016.067c-.186.019-.375.046-.564.077q.025-1.2.056-2.392A10.217,10.217,0,0,0,7.612,68.855ZM18.4,64.869h0q-.892-.067-1.783-.112.89-.03,1.779-.063A.733.733,0,0,0,18.4,64.869Zm5.568,29.548h0q.124-.437.232-.876l.085.824C24.177,94.384,24.071,94.4,23.966,94.417Zm-1.449.123h0l-.011.056c-.148.013-.3.023-.448.032C22.211,94.6,22.364,94.569,22.517,94.54ZM6.715,77.39h0c.01.216.022.431.035.648a.6.6,0,0,0,.51.567q-.154.494-.288,1-.165.624-.3,1.256Q6.7,79.125,6.715,77.39Zm.378-5.909h0c-.067.388-.126.776-.175,1.166a.509.509,0,0,0-.071.6c-.038.364-.068.729-.094,1.094q.021-1.491.046-2.983C6.9,71.4,6.994,71.443,7.093,71.481Zm20.159,1.425h0a.647.647,0,0,0-.273-.16c.1-.189.193-.378.293-.564C27.266,72.423,27.26,72.665,27.252,72.906Zm-2.337,14.4h0c0-.237-.009-.475-.018-.714q.036-.572.065-1.147l.151.055c.079.156.162.311.248.464-.009.126-.018.251-.025.375q-.023.367-.039.734a.659.659,0,0,0-.327.4c-.01.03-.018.06-.028.09ZM10.754,92.4h0c.872.189,1.747.359,2.624.517q-1.211-.029-2.423-.061Q10.862,92.626,10.754,92.4Zm-.955.427h0c-.2-.256-.393-.517-.582-.781.117.028.233.053.349.081a5.5,5.5,0,0,1,.378.7Zm-3-3.285h0a.433.433,0,0,0,.056.245l.014.025c-.12.366-.24.733-.356,1.1l-.067-.053c.01-.27.022-.54.03-.81C6.581,89.882,6.69,89.714,6.8,89.544ZM26.127,68.489h0q-.131.16-.27.312a.665.665,0,0,0-.56-.494c.289-.2.582-.385.875-.571C26.146,67.985,26.132,68.236,26.127,68.489Zm-.44,3.871h0c.023-.231.044-.462.062-.692A14.785,14.785,0,0,1,26.51,70.3a.858.858,0,0,0,.243.132A21.423,21.423,0,0,0,25.687,72.359ZM12.047,89.488h0a.551.551,0,0,0,.581.029c.152.066.306.131.458.194-.052.061-.1.123-.156.184a.633.633,0,0,0-.1.745,2.508,2.508,0,0,0,.2.28.663.663,0,0,0,.422.411,2.429,2.429,0,0,0,.4.246l-1.371-.252C12.348,90.709,12.2,90.1,12.047,89.488Zm12.027-20.08h0c0-.063-.008-.126-.013-.189.081-.066.164-.132.246-.2C24.228,69.151,24.15,69.279,24.073,69.408ZM21.31,90.064h0a7.718,7.718,0,0,1,.115-1.1.653.653,0,0,0,.148-.756c.041-.188.082-.375.123-.563q.43-1.984.9-3.959l.015.005a.56.56,0,0,0,.558-.1c.042.413.085.825.128,1.239A21.114,21.114,0,0,1,21.31,90.064Zm1,1.849h0a.7.7,0,0,0-.164-.573l-.037-.041A22.338,22.338,0,0,0,23.4,88.72q-.169,1.786-.455,3.559C22.737,92.153,22.525,92.032,22.312,91.912Zm-4.8-.565h0q.92.293,1.851.552.527.261,1.049.536-1.793-.145-3.575-.369A7.554,7.554,0,0,0,17.516,91.347Zm-2.656-.926h0q.242.091.483.179a1.715,1.715,0,0,1-.634-.01C14.76,90.533,14.812,90.478,14.86,90.421Zm-4.309-.089h0q-.091-.42-.18-.841.333.8.732,1.573l-.836-.158A.5.5,0,0,0,10.551,90.332Zm-.363-18.072h0c.011-.005.019-.013.029-.018q-.382.6-.732,1.217c.035-.3.066-.6.087-.9ZM15.959,66.9h0q-.337-.1-.674-.2l.9-.011C16.11,66.758,16.035,66.83,15.959,66.9Zm5.265,16.956h0l-.213.907c-.016-.02-.032-.042-.051-.062-.057-.057-.114-.11-.171-.167l.08-.191c.16-.378.318-.756.479-1.133l.028.011C21.326,83.433,21.274,83.644,21.225,83.857Zm-1.269,2.811h0c.113-.292.223-.582.333-.868l.028.008a.622.622,0,0,0,.465-.047c-.105.456-.209.914-.308,1.372C20.3,86.976,20.13,86.82,19.955,86.668ZM10.57,71.706h0c-.039.057-.077.115-.115.174a.632.632,0,0,0-.019-.257C10.48,71.651,10.525,71.677,10.57,71.706Zm4.024-3.424h0c-.146.162-.285.328-.426.494-.139-.112-.279-.222-.42-.331.1-.118.209-.233.309-.352C14.236,68.158,14.415,68.22,14.594,68.282ZM19.767,83.56h0c-.129-.117-.261-.232-.392-.346.027-.246.049-.493.074-.74l0-.009c.222.09.445.176.667.265q-.16.375-.318.749Zm-.17,5.231h0c.174.051.347.1.521.15-.014.093-.028.184-.039.275C19.92,89.071,19.759,88.93,19.6,88.791Zm-.988.905h0q.407.346.8.709c-.316-.148-.631-.294-.95-.436C18.511,89.878,18.56,89.787,18.609,89.7Zm-7.328-2.922h0l-.061-.189c.223-.235.441-.475.655-.719q.456.215.917.422-.272.614-.546,1.23c-.172-.062-.344-.123-.515-.183A.468.468,0,0,0,11.281,86.773Zm-2.434,1.86h0a3.027,3.027,0,0,0,.232-.309l.006.03c-.048.216-.1.43-.156.645C8.9,88.879,8.87,88.756,8.847,88.633ZM19.019,67.491h0l-.046.052c-.02-.041-.039-.084-.06-.124a.863.863,0,0,0-.075-.122c.035-.033.072-.066.108-.1A.756.756,0,0,0,19.019,67.491Zm-2.746,20.69h0c-.062.261-.118.525-.174.787-.065-.027-.129-.053-.2-.079C16.033,88.657,16.156,88.42,16.272,88.181Zm4.1-16.492h0q-.135-.681-.328-1.352c.037-.194.079-.387.123-.578a.674.674,0,0,0,.256-1.066l.009-.037q.278-.205.559-.406a20.624,20.624,0,0,0-.552,3.3C20.418,71.592,20.4,71.641,20.374,71.689Zm.669,7h0q.173-.388.349-.775c-.027.333-.048.668-.06,1ZM20.4,80.158h0l.687.294-.152.355c-.205-.153-.411-.308-.617-.459C20.345,80.285,20.373,80.221,20.4,80.158ZM13.695,83.6h0c.077.049.155.1.232.148-.15.333-.3.668-.448,1-.158-.082-.317-.161-.477-.241C13.237,84.2,13.469,83.9,13.695,83.6Zm3.816-14.389h0v.019l-.1.113a24.207,24.207,0,0,0-1.847,1.775c-.29.231-.586.456-.887.672-.074-.056-.146-.113-.221-.169.175-.189.35-.378.526-.564.473.143.875-.379.778-.805q.6-.6,1.21-1.194C17.152,69.106,17.332,69.156,17.511,69.206Zm-4.943,13.7h0q-.359.485-.735.957.215-.552.44-1.1Zm.235-1.376h0c.049-.112.1-.223.147-.333.1-.044.189-.091.285-.134.2-.09.412-.194.631-.3l.134.086q-.327.494-.661.98l-.093-.043C13.1,81.7,12.951,81.618,12.8,81.534Zm.662-4.242h0c-.06.108-.118.217-.176.325-.15.189-.3.378-.453.563-.179-.081-.356-.165-.534-.247q.118-.614.221-1.23C12.837,76.9,13.151,77.092,13.464,77.291Zm1.113.714h0c.289.189.576.379.862.571-.079.131-.16.26-.24.39-.134.025-.271.056-.411.093-.219-.1-.437-.2-.655-.293.1-.194.2-.387.307-.579ZM12.73,74.747h0l.188.109c-.042.085-.085.169-.126.255l-.024-.013,0-.027A.619.619,0,0,0,12.73,74.747Zm2.7-.758h0q-.177.27-.35.544l-.074-.046q.2-.262.393-.525Zm1.829-.08h0c.114-.205.224-.413.335-.621.038.349.082.7.136,1.042C17.578,74.188,17.421,74.048,17.263,73.909Zm-2.984,1.947h0l-.2-.1.138-.19c.058.035.115.07.174.106C14.35,75.733,14.314,75.8,14.278,75.856Zm2.936-.251h0c-.246-.118-.492-.236-.735-.358.043-.071.086-.143.131-.214.2.186.407.377.607.567ZM9.647,78.21h0l.076.044c-.027.086-.056.172-.084.259a.5.5,0,0,0-.087-.027C9.583,78.4,9.614,78.3,9.647,78.21Zm5.661,13.636h0a3.077,3.077,0,0,0,.34-.044.568.568,0,0,0,.025.106l-.134-.019Zm-8-6.6h0A.676.676,0,0,0,7.983,85c-.067.321-.128.647-.18.976q-.285.5-.576.99c0-.413.053-.867.057-1.075S7.3,85.46,7.308,85.244Zm20.434.287h0c-.052-.228-.109-.455-.176-.681a.56.56,0,0,0-.052-.123.721.721,0,0,0,.243-.034C27.75,84.973,27.746,85.252,27.741,85.531ZM8.916,94.123h0c-.11-.081-.214-.169-.321-.254.131.008.261.014.393.018a.679.679,0,0,0,.421.213c.123.015.245.028.368.042.115.08.229.161.346.238-.375-.052-.752-.106-1.127-.166A.282.282,0,0,0,8.916,94.123Zm21.557-30.7a.754.754,0,0,0-.744-.743c-7.8.41-15.61.626-23.414.953a.678.678,0,0,0-.667.666c-.03,9.565-.586,19.13-.53,28.694a.806.806,0,0,0-.139.907.354.354,0,0,0,.068.1.582.582,0,0,0,.393.856A61.2,61.2,0,0,0,13.3,96.091c.662.077,1.325.141,1.982.21,1.914.2,3.834.384,5.752.527s3.842.264,5.764.292c.719.01,1.731-.105,2.026-.787a.7.7,0,0,0,.431-.647q-.251-8.136.126-16.278.19-4.015.549-8.019A48.99,48.99,0,0,0,30.473,63.421Z" transform="translate(1.045 16.52)" fill="#ee77a9"/>
    <path id="Caminho_2" data-name="Caminho 2" d="M19.744,81.942A19.345,19.345,0,0,0,17.3,79.594c.572-1.017,1.1-2.06,1.649-3.019a42.3,42.3,0,0,0,3.412-6.325c.823-2.29-2.83-3.281-3.64-1a20.35,20.35,0,0,1-1.535,2.789q-.831,1.5-1.682,2.995c-.3.525-.625,1.05-.955,1.578q-.034-2.145-.07-4.29-.019-1.141-.037-2.282a3.5,3.5,0,0,0-.761-2.6,1.649,1.649,0,0,0-2.557.33,3.6,3.6,0,0,0-.455,2.482q.021,1.244.041,2.489l.077,4.772c.053,3.251.109,6.5.2,9.752.063,2.376,3.716,2.39,3.7,0q-.011-2.073-.039-4.143a1.524,1.524,0,0,0,.437-.328l.019-.02c.625.615,1.34,1.174,1.854,1.705A43.757,43.757,0,0,1,20.1,88.121a1.887,1.887,0,0,0,2.67,0c1.476-1.9-1.771-4.877-3.025-6.179" transform="translate(2.584 17.662)" fill="#fff"/>
    <path id="Caminho_3" data-name="Caminho 3" d="M46.356,91.521h0c.038-.139.074-.279.108-.418.046-.09.1-.179.15-.266l-.046.64-.212.044m-4.728.607h0c.512-.019,1.027-.034,1.542-.038a.6.6,0,0,0,.619-.472q.582-.1,1.158-.259c-.042.152-.077.309-.106.469q-1.624.312-3.261.541A.576.576,0,0,0,41.628,92.128Zm-1.991-2.167h0c.5.119,1.007.227,1.511.328-.477.068-.952.138-1.428.205l-2.339-.181Q38.509,90.139,39.637,89.962Zm-2.7-14.489h0c.152-.042.3-.086.451-.132-.051.141-.1.281-.153.422C37.136,75.668,37.037,75.57,36.938,75.473Zm-.558,2.646h0q-.614-.683-1.225-1.365.725.39,1.419.833Zm-.3,4.3h0a.6.6,0,0,0,.238-.235l.035-.058a3.178,3.178,0,0,1,.141.307C36.362,82.423,36.223,82.419,36.085,82.416Zm.156,3.5h0c-.209.016-.418.03-.628.046q-.015-.647-.037-1.3.331.133.666.259c-.033.151-.068.3-.1.449A.682.682,0,0,0,36.241,85.92Zm-2.9,5.979h0a.562.562,0,0,0-.429.5c-.236.02-.47.042-.7.061.02-.194.042-.387.062-.579a.635.635,0,0,0,1.1-.224c.046-.136.089-.273.128-.41l2.15.188C34.869,91.571,34.1,91.724,33.337,91.9ZM32.053,69.65h0l.331.213c-.094-.025-.188-.051-.283-.075C32.086,69.741,32.069,69.7,32.053,69.65ZM34.333,87.4h0c0,.072,0,.145,0,.217l-.306.043c.006-.124.011-.248.016-.373A.594.594,0,0,0,34.333,87.4Zm-.2-4.9h0c.009-.157.019-.314.032-.472.008.155.014.309.022.464Zm.122,1.611h0q.036.981.057,1.964a.669.669,0,0,0-.24.122c.008-.72.005-1.443.013-2.162ZM33.9,89.176h0l.439.018c0,.113,0,.224,0,.337v0l-.5.085C33.865,89.471,33.885,89.324,33.9,89.176ZM32.9,73.248h0c.352.38.706.758,1.065,1.131a.812.812,0,0,0-.03.285c-.294-.122-.592-.233-.9-.337C33.006,74.027,32.961,73.659,32.9,73.248Zm.359,6.352h0a16.309,16.309,0,0,0-.24,1.681h0q-.006-.93,0-1.86C33.1,79.48,33.176,79.54,33.257,79.6Zm-.834-3.107h0c.008-.241.01-.481.009-.721q.744.814,1.485,1.629c-.014.032-.025.065-.038.1C33.4,77.157,32.913,76.822,32.423,76.492Zm1.991-9.033h0a.72.72,0,0,0-.152.323l-2.378-.087Q33.15,67.59,34.414,67.459ZM31.472,79.948h0l-.023-.014c.093-.417.176-.836.248-1.255l.018,0C31.63,79.1,31.547,79.524,31.472,79.948Zm-.563-8.643h0c-.058-.4-.113-.794-.161-1.192-.02-.165-.033-.332-.049-.5.08.25.176.5.275.743a.589.589,0,0,0,.181.473c.023.062.043.124.065.188C31.111,71.113,31.007,71.207,30.909,71.305Zm.208-3.551h0a.528.528,0,0,0-.161.131,1.171,1.171,0,0,0-.184-.107Zm5.59,4.667h0l.667.178-.407.184c-.2-.1-.407-.2-.612-.29Zm4.544-5.875h0a30.077,30.077,0,0,1-4.276.611Q39.118,66.883,41.251,66.546Zm1.13,1.282h0l-.6.314a.688.688,0,0,0-.093-.043Zm1.135.966h0c.072.112.147.222.223.332-.11.194-.214.392-.316.593q-1.038.2-2.075.411a.846.846,0,0,0-.309.061l-.259.052-.044-.019Q42.125,69.511,43.516,68.794Zm.4,2.315h0a.987.987,0,0,0,.119-.015c.091-.019.181-.041.271-.063-.19.477-.371.957-.539,1.444C43.815,72.019,43.865,71.564,43.914,71.109Zm2.973-5.516h0c-.019.011-.035.025-.053.037a.707.707,0,0,0-.366.079l-1.357.7c-.157-.145-.322-.284-.491-.421Q45.753,65.795,46.887,65.593ZM48.378,66.7h0c-.022-.356-.049-.714-.071-1.07a.694.694,0,0,0-.076-.283L48.5,65.3C48.456,65.768,48.417,66.235,48.378,66.7Zm-.629,5.6h0a.754.754,0,0,0,.172.039c-.011.157-.024.313-.036.47Zm-.117,3.933h0q-.145-.479-.292-.956a.619.619,0,0,0,.354.1C47.674,75.664,47.653,75.95,47.632,76.235Zm-.47,6.694h0q-.207-.795-.416-1.589c.038-.122.079-.242.12-.364l.126.145a.592.592,0,0,0,.281.188Q47.218,82.119,47.162,82.929Zm-.33,4.777h0a13.458,13.458,0,0,0-.344-2.751.589.589,0,0,0-.17-.3c.009-.113.016-.227.024-.341a.64.64,0,0,0,.724,0Q46.951,86.01,46.832,87.706Zm-7.81-18.133h0c-.2-.07-.4-.138-.6-.2l.081-.032.9.036Zm.63,10.253h0c-.075.555-.153,1.111-.232,1.666l-.616-.683q.173-.692.333-1.39Q39.4,79.621,39.652,79.827Zm.214-1.628h0l-.352-.317c.151-.488.3-.978.461-1.463l.1.042C40.011,77.04,39.94,77.621,39.867,78.2Zm1.173,5.93h0c-.023.21-.046.42-.07.63-.153-.1-.308-.2-.464-.3.023-.109.043-.217.066-.326C40.728,84.132,40.884,84.131,41.039,84.128Zm.165-1.495h0c-.113.009-.223.014-.332.018q.162-.782.33-1.559l.1.086c.018.014.035.024.055.037Zm.751-10.31h0a.73.73,0,0,0-.072-.067l.019-.279.19-.086Zm2.965,7.09h0c.052.2.1.392.153.588,0,.086-.009.174-.014.261-.084-.056-.169-.108-.256-.158C44.842,79.873,44.88,79.643,44.92,79.413Zm-2.352,5.494h0c.07.152.143.3.216.451-.094-.019-.188-.037-.281-.057C42.525,85.171,42.546,85.039,42.568,84.907Zm2,1.149h0q-.373-.658-.711-1.335a6.528,6.528,0,0,1,.695.6C44.555,85.567,44.562,85.811,44.573,86.055Zm.8,3.615h0c-.082-.072-.167-.142-.252-.214a1.43,1.43,0,0,0,.07-.184.534.534,0,0,0,.219.113C45.4,89.48,45.383,89.575,45.369,89.67Zm-4.223-1.587h0l.09.062-.4-.018ZM47.4,79.564h0a9.542,9.542,0,0,1-.7-1.239c.006-.136.014-.271.022-.407.062.08.126.161.186.245a.688.688,0,0,0,.572.279C47.448,78.817,47.422,79.19,47.4,79.564Zm-8.765,6.183h0l-.918.066c.036-.109.068-.217.1-.327Q38.219,85.621,38.631,85.747ZM38.071,84.1h0c.005-.052.009-.1.013-.155.321.032.642.063.962.093-.018.12-.037.241-.055.36C38.684,84.3,38.377,84.2,38.071,84.1ZM49.136,63.644c-1.92.429-3.849.8-5.785,1.13a.488.488,0,0,0-.461-.221c-4.43.539-9.005.693-13.371,1.655a.525.525,0,0,0-.947.311c-.081,4.51.27,9.04.483,13.542s.429,9.027.626,13.542a.705.705,0,0,0,.69.688,63.772,63.772,0,0,0,17.1-1.478.766.766,0,0,0,.552-.724c.707-9.231,1.534-18.469,2.072-27.711A.768.768,0,0,0,49.136,63.644Z" transform="translate(7.382 16.774)" fill="#f6b033"/>
    <path id="Caminho_4" data-name="Caminho 4" d="M38.815,67.812a2.516,2.516,0,0,0-2.564-.488,2.3,2.3,0,0,0-1.8,1.668,2.555,2.555,0,0,0,.747,2.414,2.549,2.549,0,0,0,3.613-3.594" transform="translate(8.942 17.723)" fill="#fff"/>
    <path id="Caminho_5" data-name="Caminho 5" d="M40.021,83.254a7.1,7.1,0,0,0-1.463.328c-.1.023-.115.058-.114.072a.28.28,0,0,0-.057-.086c-.5-.6-.223-2.1-.2-2.806.07-2.295.228-4.591.458-6.875A1.857,1.857,0,0,0,36.8,72.044a1.889,1.889,0,0,0-1.843,1.843c-.21,1.661-.378,3.326-.468,5a21.747,21.747,0,0,0,.024,4.915,4.414,4.414,0,0,0,2.325,3.243,3.95,3.95,0,0,0,4.42-.805,1.77,1.77,0,0,0-1.236-2.983" transform="translate(8.934 19.028)" fill="#fff"/>
    <path id="Caminho_6" data-name="Caminho 6" d="M73.544,65.513h0a1.285,1.285,0,0,0-.313-.389l.337-.009c-.008.133-.016.265-.024.4m-.61,10.018h0a.622.622,0,0,0-.115-.221.668.668,0,0,0,.119-.27c.014-.071.027-.142.041-.214C72.964,75.062,72.949,75.3,72.934,75.532Zm-5.9,18.1h0a.727.727,0,0,0-.269-1.246l-.022-.005c0-.082-.006-.165-.009-.249a.728.728,0,0,0,.091-.124q.517.2,1.047.361.129.439.261.879a.716.716,0,0,0,1.379-.38l-.038-.172a2.334,2.334,0,0,0,.252-.01q.177.38.34.768a.721.721,0,0,0,1.336.066.578.578,0,0,0,.294.242l-.019.266Q69.355,93.852,67.036,93.633ZM52.98,68.8h0c.1.072.2.143.294.213a.625.625,0,0,0-.309.179Zm.309-1.969h0l.326.644q-.272-.127-.545-.252A.6.6,0,0,0,53.29,66.831Zm1.828-.983h0a.589.589,0,0,0-.126.126,1.713,1.713,0,0,0-.792.276.738.738,0,0,0-.179.17l-.293-.52ZM56.17,77.307h0l.16-1.229c.093.122.185.245.279.366.034.546.086,1.093.16,1.637q-.3-.209-.61-.415c.005-.066.011-.132.018-.2A.746.746,0,0,0,56.17,77.307Zm1.549,5.461h0a5.292,5.292,0,0,0-.634-.189c-.089-.319-.174-.642-.255-.964.292.385.587.766.89,1.142Zm.025,1.906h0c0,.022.005.041.006.06-.042-.122-.082-.245-.123-.368.037.019.075.038.11.058C57.741,84.506,57.742,84.589,57.745,84.673Zm1.122.434h0l.308.193-.023.294a.646.646,0,0,0-.549.231c-.208-.134-.411-.274-.612-.418-.047-.131-.1-.26-.141-.391A.675.675,0,0,0,58.867,85.107Zm-2.493,4.51h0q-.141-.565-.265-1.131l.261.119q.28.527.545,1.064C56.735,89.653,56.554,89.634,56.374,89.616ZM53.3,90.3h0c.037.19.076.38.12.569-.255-.07-.512-.128-.771-.179.1-.491.193-.981.285-1.473A10.646,10.646,0,0,1,53.3,90.3Zm.806-5.584h0c.006.071.014.142.02.212l-.12,0C54.038,84.854,54.071,84.786,54.1,84.716Zm.633-10.259h0c-.042.484-.082.965-.117,1.44a.68.68,0,0,0-.027.209l0,.093v0c-.029.454-.057.908-.086,1.363a.69.69,0,0,0-.039.621q-.072,1.124-.143,2.248-.188.723-.427,1.429Q54.152,78.139,54.736,74.457ZM54,69.464h0c.132.068.268.134.4.2q-.228,1.059-.43,2.125.017-1.109.034-2.216A1.007,1.007,0,0,0,54,69.464Zm7.405,3.451h0a.7.7,0,0,0,.236-.486c.1.063.2.124.292.186q-.11.356-.218.714c-.1-.1-.205-.191-.311-.283Zm.725,7.066h0c-.181-.262-.361-.527-.536-.795l.023-.105c.287.427.573.856.855,1.287C62.362,80.238,62.247,80.11,62.134,79.981Zm.955-6.491h0c-.023.3-.047.593-.061.877l-.014.279c-.067-.071-.137-.143-.205-.217Q62.946,73.957,63.089,73.489ZM66.11,68.8h0a.678.678,0,0,0-.256.352c-.071.229-.139.459-.208.687L64.088,68.32ZM66.3,81.093h0c.15.162.3.325.446.488a.653.653,0,0,0,.341.2l-.072.984-.771-.985C66.259,81.553,66.276,81.322,66.3,81.093Zm1.334-6.844h0l-.019.27-.342,4.706c-.01.146-.022.292-.032.437q-.3-.418-.617-.829Q67.018,76.521,67.629,74.249Zm2.453-9.036h0a.68.68,0,0,0-.384.2q-1.48-.036-2.957-.077Q68.411,65.27,70.082,65.213Zm1.959,23.735h0q-.051.738-.1,1.475c-.06-.146-.118-.293-.183-.437q.051-.392.07-.805A.9.9,0,0,0,72.041,88.948Zm-5.426-.3h0a.6.6,0,0,0,.294.416l-.281-.075C66.624,88.877,66.619,88.763,66.615,88.65Zm2.311-.456h0l.08.37c-.1-.143-.19-.287-.287-.429A.758.758,0,0,0,68.926,88.194ZM68.9,69.46h0l.266.062c0,.038,0,.076-.005.114A.568.568,0,0,1,68.9,69.46Zm.294,9.637h0q-.076.978-.162,1.952-.447,3.191-.686,6.406a.9.9,0,0,0,0,.156c-.034-.048-.066-.1-.1-.142-.011-.015-.024-.028-.037-.042C68.463,84.643,68.743,81.853,69.194,79.1Zm-2.779,5.372h0l.053.063a.684.684,0,0,0,.4.249l-.056.773C66.688,85.187,66.558,84.825,66.414,84.469ZM64.87,79.555h0l.1.1-.038.451-.129-.165C64.823,79.815,64.846,79.684,64.87,79.555Zm-.488-4.784h0l.068-1.424c.009-.184.014-.365.018-.544a.52.52,0,0,0,.374-.006Q64.6,73.78,64.382,74.771Zm9.953-11.12c-7.317.148-14.66.281-21.949,1a.662.662,0,0,0-.628.823l.24.955a.563.563,0,0,0-.024.1c-.039.3-.076.592-.114.887a.476.476,0,0,0-.041.316c-1.012,8.123-1.139,16.422-1.354,24.591a.759.759,0,0,0,.554.728c7.09,1.227,14.239,2.168,21.419,2.681a.834.834,0,0,0,.819-.819q1.1-15.256,1.8-30.533A.731.731,0,0,0,74.335,63.651Z" transform="translate(13.249 16.78)" fill="#66c3ec"/>
    <path id="Caminho_7" data-name="Caminho 7" d="M62.131,84.882h0c-.375.543-1.256.191-1.687-.129a4.078,4.078,0,0,1-.676-4.989c.644-.767,1.281-.317,2.082-.132a1.613,1.613,0,0,0,.657.008q-.025,1.065-.063,2.127c-.029.8.185,2.4-.312,3.115m4.178-9.352a56.768,56.768,0,0,0-.251-6.651A1.919,1.919,0,0,0,64.2,67.021a1.886,1.886,0,0,0-1.859,1.859c-.037,2.391.129,4.79.179,7.187a4.246,4.246,0,0,0-3.384-.252,5.373,5.373,0,0,0-3.4,3.711c-1.073,3.552.557,8.025,4.284,9.173a4.627,4.627,0,0,0,4.938-1.327c1.231-1.5,1.177-3.559,1.248-5.4Q66.337,78.754,66.309,75.531Z" transform="translate(14.575 17.683)" fill="#fff"/>
    <path id="Caminho_8" data-name="Caminho 8" d="M96.044,66.306h0a.818.818,0,0,0-.63-.525c.223-.03.448-.062.671-.091-.014.205-.027.411-.041.616m-.407,6.306h0c.014-.454.022-.907.032-1.359.02-.014.041-.027.06-.042C95.7,71.678,95.666,72.145,95.637,72.613Zm-1.9,20.826h0a.73.73,0,0,0,.616-.491.482.482,0,0,0,.042-.085c-.013.212-.025.425-.039.636C94.147,93.478,93.941,93.459,93.734,93.438Zm-1.918-.4h0a.752.752,0,0,0,1.066-.475c.072.186.153.37.246.557a.571.571,0,0,0,.339.3q-1.035-.1-2.069-.2A.574.574,0,0,0,91.816,93.034ZM81.6,92.363h0a.622.622,0,0,0,.248-.12c.4.082.8.162,1.2.235ZM76.534,91.6h0l.228.4c-.07-.005-.141-.011-.21-.015C76.546,91.855,76.541,91.727,76.534,91.6ZM74.961,68.556h0c.614-.079,1.227-.162,1.842-.243a.7.7,0,0,0,.344.732,3.388,3.388,0,0,0-.519.927.979.979,0,0,0-.112.016c-.015-.25-.032-.5-.046-.748a.633.633,0,0,0-1.169-.317c-.062.087-.12.177-.176.266C75.071,68.978,75.016,68.766,74.961,68.556ZM85.8,67.1h0a.859.859,0,0,0-.028.18q-.734.126-1.467.246-.879.1-1.755.222a.527.527,0,0,0-.658-.03c-.051.035-.1.074-.15.109q-.763.025-1.524.035Q83.014,67.483,85.8,67.1Zm1.651,13.614h0c-.011.223-.022.445-.033.666-.185-.113-.373-.223-.559-.336a.775.775,0,0,0-.128-.123c.019-.148.037-.3.056-.445C87.013,80.551,87.232,80.633,87.454,80.712Zm-.4-2.154h0c.075-.516.15-1.033.228-1.549l.314.079q-.029.884-.061,1.766c-.164-.081-.326-.164-.488-.246ZM89.4,68.636h0a8.516,8.516,0,0,0-.813.388l-1.523-.161Q88.228,68.764,89.4,68.636Zm.062,3.394h0l-.317-.043v-.063c.119-.023.24-.046.359-.072Zm2.188-.946h0c.085-.042.169-.086.252-.129-.158.432-.3.872-.415,1.319h0q-.023-.5-.068-1A.62.62,0,0,0,91.646,71.084Zm1.016,3.61h0a.61.61,0,0,0-.091-.2q.059-.321.127-.64C92.687,74.132,92.674,74.413,92.661,74.693Zm1.878-5.764h0c.009.133.015.265.018.4a.643.643,0,0,0-.186.128c0-.071,0-.142,0-.213a.771.771,0,0,0-.009-.134C94.424,69.05,94.483,68.992,94.539,68.93Zm.325,16.225h0l-.049-.022q.068-.628.128-1.258Q94.9,84.516,94.864,85.154Zm-3.845,6.484h0c.014-.011.028-.023.041-.035.057.127.115.252.174.379l-.151-.01A.715.715,0,0,0,91.018,91.638Zm-2.467-1.7h0q-.42-.795-.851-1.582a.624.624,0,0,0,.068-.005q.148.261.294.522.243.538.5,1.069Zm-2.186-.582h0q-.339-.519-.687-1.031l.415.005c.167.368.344.732.525,1.094Zm-2.917-.8h0c-.034-.087-.067-.174-.1-.261l.748.013q.146.259.3.512Zm-2.116,1.573h0c-.139-.3-.275-.61-.4-.919.369.105.739.208,1.109.311q.175.325.346.653Zm-1.239,2.116h0c-.079-.152-.155-.306-.231-.459.35.089.7.172,1.054.252.014.022.029.042.043.063a.619.619,0,0,0,.27.232Zm-3.532-2.739h0a.617.617,0,0,0,.265.226l.022.141L76.8,89.84a.5.5,0,0,0-.355-.093c-.008-.153-.014-.306-.022-.459C76.472,89.362,76.514,89.436,76.561,89.507ZM75.9,79.052h0a.61.61,0,0,0,.25.448c0,.115,0,.229,0,.345a.734.734,0,0,0,0,.378q0,.318.011.635a.56.56,0,0,0-.176.127c-.19-2.976-.427-5.947-.761-8.905a.719.719,0,0,0,.194-.1C75.586,74.337,75.742,76.694,75.9,79.052Zm3.746-9.175h0l-.063-.008a2.885,2.885,0,0,0-.082-.287l.422-.057C79.831,69.641,79.74,69.758,79.649,69.877Zm5.488,10.045h0L85.133,80c-.1-.06-.2-.115-.3-.175C84.934,79.86,85.037,79.889,85.138,79.922Zm.146-2.258h0l-.155-.086c.061-.354.12-.707.184-1.061l.044.011C85.332,76.907,85.308,77.285,85.284,77.664ZM93.4,89.095h0c.085.345.169.688.254,1.032a.565.565,0,0,0-.086-.08q-.143-.43-.29-.856A.776.776,0,0,0,93.4,89.095Zm-2.2-6.19h0c.03.249.062.5.093.744l-.213-.013Zm-7.052,2.476h0l.339.008c.049.081.1.162.147.243-.143-.038-.285-.077-.429-.118Zm-1.377,1.412h0a.619.619,0,0,0,.321.085l.065.082-.321,0C82.808,86.9,82.785,86.849,82.765,86.793Zm-3.071-1.206h0l.01,0c.082.128.164.257.246.385l-.015.448C79.851,86.147,79.77,85.868,79.694,85.588ZM78.474,88.6h0q.538.717,1.059,1.447l-.483-.023Q78.747,89.32,78.474,88.6Zm.089-1.805h0c.01-.169.022-.337.03-.506q.087.3.18.6l-.142,0Zm-1.6-13.624h0l-.181,1c-.022-.331-.042-.662-.065-.993Zm.363,11.75h0l-.005.048c-.024-.205-.049-.411-.072-.617a.5.5,0,0,0,.091-.043C77.336,84.514,77.331,84.718,77.327,84.922Zm1.191-13.481h0a6.156,6.156,0,0,1-.107.686c-.035.1-.072.19-.105.288-.008-.03-.014-.061-.02-.091a.627.627,0,0,0-.789-.408c.065-.167.126-.336.181-.506Zm1.43,8.486h0l.068-1.012.082.047c0,.335,0,.668,0,1Zm.091,2.641h0a.505.505,0,0,0-.055.481c.024.066.049.132.075.2-.008.162-.014.325-.022.488l-.114-.011c-.07-.1-.141-.2-.21-.307l.065-.969Zm1.978.806h0c.028.1.056.2.085.3-.113-.133-.224-.265-.339-.4C81.848,83.311,81.932,83.344,82.017,83.374Zm.151-7.631h0v0l.6.148-.006.248C82.562,76.007,82.364,75.875,82.167,75.743Zm-.645,4.586h0c.016-.172.033-.346.051-.519l.562.328a.678.678,0,0,0-.45.235Zm2.58,9.916h0l-.067-.174.734.2C84.546,90.262,84.324,90.252,84.1,90.245Zm6.316.176h0c-.27-.53-.55-1.054-.836-1.575-.077-.167-.153-.335-.228-.5h.17c.341.7.674,1.4,1,2.1Zm-1.068-8.2h0a.667.667,0,0,0-.123-.005q.053-.38.108-.761l.079.034Q89.384,81.853,89.351,82.219ZM96.7,64.075c-7.61,1.076-15.231,2.067-22.835,3.185a.726.726,0,0,0-.5.885c.086.3.176.6.264.9a.664.664,0,0,0-.062.323c.294,7.782,1.066,15.55,1.488,23.331a.785.785,0,0,0,.766.765q1.883.116,3.767.254a.551.551,0,0,0,.621.044q7.438.544,14.854,1.331c.426.044.735-.385.759-.759.62-9.84,1.275-19.677,1.851-29.518A.778.778,0,0,0,96.7,64.075Z" transform="translate(19.376 16.891)" fill="#f6b033"/>
    <path id="Caminho_9" data-name="Caminho 9" d="M89.975,82.46a6.366,6.366,0,0,0-5.587-6.206c-.7-.08-1.856-.06-1.183-1.062a2.367,2.367,0,0,1,1.363-.858,1.309,1.309,0,0,1,1.417.544A1.534,1.534,0,0,0,88.577,73.8a3.4,3.4,0,0,0-2.946-3.171,5.681,5.681,0,0,0-4.255,1.173c-2.375,1.775-3.109,5.8-.184,7.506a5.466,5.466,0,0,0,2.195.624,3.641,3.641,0,0,1,1.586.33,2.929,2.929,0,0,1,1.184,2.984,2,2,0,0,1-1.969,1.624c-1.152-.129-1.255-1.44-1.875-2.163a1.726,1.726,0,0,0-2.7.347c-1.36,2.963,2.287,5.766,5.027,5.562a5.909,5.909,0,0,0,5.334-6.16" transform="translate(20.967 18.633)" fill="#fff"/>
    <g id="Grupo_1" data-name="Grupo 1" transform="translate(1 9.169)">
      <path id="Caminho_10" data-name="Caminho 10" d="M6.578,71.717q-4.5,0-4.643-5.542-.145-10.76-.468-19.829Q1,32.418,1,24.394q0-5.759.216-11.48Q1.324,9.964,2.26,8.9A4.023,4.023,0,0,1,4.995,7.659q2.339-.215,4.678-.216,1.187,0,2.375.072,3.275.145,3.923,1.656a7.288,7.288,0,0,1,.432,2.7q0,.683-.18,4.03Q15.07,36.919,15.072,47.535q0,13.925.72,16.05a2.13,2.13,0,0,0,2.3,1.44q2.41,0,5.722-.181,1.62-.106,2.411-.108a6.6,6.6,0,0,1,1.116.072,1.717,1.717,0,0,1,1.548,1.765,2.6,2.6,0,0,1-1.368,2.338q-2.59,1.582-11.84,2.231-1.044.072-4.174.325T6.578,71.717Z" transform="translate(-1 -7.443)" fill="#2a4470"/>
    </g>
    <g id="Grupo_2" data-name="Grupo 2" transform="translate(46.822 14.604)">
      <path id="Caminho_11" data-name="Caminho 11" d="M64.852,63.876a3.693,3.693,0,0,1-2.05-.559,2.652,2.652,0,0,1-.956-2.23q-.089-1.674-.124-3.437-.074-5.831-.757-11.876Q59.344,32.1,52.113,32.1q-3.67,0-3.672,4.823l.072,18.5a18.528,18.528,0,0,1-.648,5.866q-.791,2.233-5.542,2.231a9.33,9.33,0,0,1-1.944-.145,3.024,3.024,0,0,1-2.662-3.095q-.578-14.971-.576-31.021v-12.7q0-2.771,1.331-3.707,1.618-1.114,5.362-1.114a7.17,7.17,0,0,1,3.617.629q.953.631.953,3.042,0,2.556.108,7.341.072,4.032,1.008,4.03.863,0,3.024-1.907Q61,17.379,64.6,13.96a3.907,3.907,0,0,1,2.627-1.187q1.944,0,2.34,1.439a2,2,0,0,1,.071.54A3.949,3.949,0,0,1,68.2,17.272l-7.165,7.162q-1.868,1.833-1.869,2.842,0,.9,1.4,1.942.681.506,1.941,1.3,6.262,3.853,8.388,14.792.823,4.427,1.51,10.58c.19,1.584.325,2.6.4,3.059a10.483,10.483,0,0,1,.072,1.4q0,1.98-4.032,2.952A17.531,17.531,0,0,1,64.852,63.876Z" transform="translate(-37.142 -11.73)" fill="#2a4470"/>
    </g>
    <g id="Grupo_3" data-name="Grupo 3" transform="translate(86.154 18.13)">
      <path id="Caminho_12" data-name="Caminho 12" d="M85.8,63.923a15.877,15.877,0,0,1-9.447-2.879,17.794,17.794,0,0,1-6.172-8.349,31.378,31.378,0,0,1-2.016-11.336A36.177,36.177,0,0,1,70.4,28.726a25.31,25.31,0,0,1,6.3-9.752,16.041,16.041,0,0,1,11.444-4.463,11.383,11.383,0,0,1,9,4.067,18.624,18.624,0,0,1,4.462,12.7q0,5.937-7.558,8.241-5.4,1.655-10.76,3.347-2.556.791-3.058,1.764a1.769,1.769,0,0,0-.181.863,10.524,10.524,0,0,0,.325,2.375q1.978,8.134,7.845,8.134,7.485,0,10.4-4.86,1.8-3.022,3.778-3.023a1.479,1.479,0,0,1,1.439.936,2.236,2.236,0,0,1,.181.936,7.1,7.1,0,0,1-.972,3.059Q97.352,63.923,85.8,63.923ZM80.654,38.3q1.618,0,12.631-4.355,2.624-1.042,2.627-3.383a13.769,13.769,0,0,0-.721-4.138q-1.331-4.319-3-5.543a5.4,5.4,0,0,0-3.113-1.223,4.52,4.52,0,0,0-1.547.288A10.794,10.794,0,0,0,82.381,24.3q-1.946,2.879-2.916,10.509a9.492,9.492,0,0,0-.108,1.331,4.406,4.406,0,0,0,.235,1.529A1,1,0,0,0,80.654,38.3Z" transform="translate(-68.165 -14.511)" fill="#2a4470"/>
    </g>
    <g id="Grupo_6" data-name="Grupo 6" transform="translate(22.049 1)">
      <g id="Grupo_4" data-name="Grupo 4" transform="translate(4.291 11.444)">
        <path id="Caminho_13" data-name="Caminho 13" d="M26.17,63.072a10.631,10.631,0,0,1-3.887-.54q-1.3-.538-1.3-2.915.108-10.4.145-16.734.034-13.027.071-16.3a3.836,3.836,0,0,1,.5-1.961q.466-.738,2.95-.882,2.086-.108,3.455-.108a18.411,18.411,0,0,1,2.484.145A1.635,1.635,0,0,1,32,24.8a7.523,7.523,0,0,1,.36,2.681q0,4.032-.252,9.789-.253,5.506-.251,11.553a91.135,91.135,0,0,0,.539,9.932,11.5,11.5,0,0,1,.072,1.188,3.685,3.685,0,0,1-.45,1.907,2.492,2.492,0,0,1-1.889.972A38.237,38.237,0,0,1,26.17,63.072Zm.5-43.114q-3.455,0-4.571-2.195a4.611,4.611,0,0,1-.576-2.195q0-5.542,6.514-5.543a4.924,4.924,0,0,1,3.49,1.062,3.546,3.546,0,0,1,1.116,2.681A6.087,6.087,0,0,1,30.974,18.3,5.858,5.858,0,0,1,26.673,19.958Z" transform="translate(-20.987 -10.026)" fill="#2a4470"/>
      </g>
      <g id="Grupo_5" data-name="Grupo 5">
        <path id="Caminho_14" data-name="Caminho 14" d="M23.712,10.1c1.377-1.7,4.207-.811,5.76-3.167S29.793,1,32.042,1.2,35.6,6.688,33.16,9.15c3.36-.055,5.126.649,5.16,2.343a1.521,1.521,0,0,1-1.383,1.747c2.2.482,1.861,3.151-.349,3.437,1.424.283,2.33,2.472-.292,3.242,1.168.657,1.073,2.712-2.065,2.911-2.363.15-9.421.762-10.749-.863-.441-.54-.17-9.688.229-11.862" transform="translate(-16.088 -0.947)" fill="#fff"/>
        <path id="Caminho_15" data-name="Caminho 15" d="M23.734,21.87h0c.383.459,1.611,1,5.286,1,1.734,0,3.493-.119,4.657-.2l.592-.039c1.395-.089,2.328-.581,2.5-1.316a1.037,1.037,0,0,0-.535-1.13.249.249,0,0,1,.052-.456c.976-.285,1.52-.818,1.491-1.461a1.474,1.474,0,0,0-1.178-1.3.249.249,0,0,1,.016-.491,1.7,1.7,0,0,0,1.62-1.519,1.426,1.426,0,0,0-1.292-1.429.248.248,0,0,1,.043-.491c.119-.006,1.173-.1,1.144-1.494-.018-.9-.511-2.1-4.554-2.1l-.354,0h0a.249.249,0,0,1-.178-.423C34.5,7.556,34.509,5.1,33.9,3.438c-.418-1.146-1.1-1.869-1.828-1.933-.053,0-.105-.006-.153-.006-.87,0-1.008.766-1.2,2.234a7.745,7.745,0,0,1-.991,3.4,5.1,5.1,0,0,1-3.389,2.008A4.282,4.282,0,0,0,24,10.265c-.415,2.387-.612,10.931-.266,11.6m5.286,1.5c-3.165,0-5.022-.389-5.676-1.192-.25-.3-.336-2.149-.256-5.481a60.2,60.2,0,0,1,.434-6.584A.251.251,0,0,1,23.573,10,4.613,4.613,0,0,1,26.22,8.654a4.633,4.633,0,0,0,3.1-1.8,7.37,7.37,0,0,0,.914-3.184C30.406,2.3,30.571,1,31.92,1c.063,0,.129,0,.2.009.924.082,1.766.927,2.253,2.258a6.273,6.273,0,0,1-.61,5.685c3.237.032,4.828.88,4.862,2.589a1.806,1.806,0,0,1-.875,1.769,1.794,1.794,0,0,1,.98,1.676,2.093,2.093,0,0,1-1.324,1.8,1.907,1.907,0,0,1,.865,1.466c.018.383-.1,1.269-1.407,1.808a1.5,1.5,0,0,1,.388,1.372c-.221.964-1.322,1.6-2.949,1.7l-.591.039C32.539,23.249,30.771,23.368,29.019,23.368Z" transform="translate(-16.141 -1)" fill="#2a4470"/>
        <path id="Caminho_16" data-name="Caminho 16" d="M25.276,20.444c.326,1.87-4.924,1.624-6.366.583s-1.144-9.18-.937-12.057c.155-2.139,7.318-2.244,7.2-.488-.193,2.919-.487,8.571.1,11.962" transform="translate(-17.55 0.676)" fill="#2a4470"/>
        <path id="Caminho_17" data-name="Caminho 17" d="M22.138,7.558h0c-1.847,0-3.8.554-3.864,1.483-.3,4.128-.333,10.992.834,11.837a6.921,6.921,0,0,0,3.442.757,3.454,3.454,0,0,0,2.41-.62.543.543,0,0,0,.123-.477,56.794,56.794,0,0,1-.105-12.02.4.4,0,0,0-.126-.311,4.286,4.286,0,0,0-2.714-.649m.412,14.574a7.312,7.312,0,0,1-3.734-.851c-.256-.185-1.037-.749-1.189-5.534-.075-2.387.034-5.123.15-6.741.1-1.338,2.328-1.945,4.361-1.945a4.545,4.545,0,0,1,3.077.806.9.9,0,0,1,.26.683,56.345,56.345,0,0,0,.1,11.9,1.051,1.051,0,0,1-.232.882C24.759,22.029,23.343,22.132,22.55,22.132Z" transform="translate(-17.603 0.623)" fill="#2a4470"/>
        <path id="Caminho_18" data-name="Caminho 18" d="M18.8,8.868a.249.249,0,0,1-.146-.45,5.913,5.913,0,0,1,3.232-.73.249.249,0,0,1,0,.5,5.514,5.514,0,0,0-2.94.635.241.241,0,0,1-.146.047" transform="translate(-17.349 0.791)" fill="#2a4470"/>
        <path id="Caminho_19" data-name="Caminho 19" d="M18.481,11.283h-.006a.249.249,0,0,1-.242-.256c.014-.5.033-1,.056-1.5a.249.249,0,0,1,.5.024c-.023.493-.042,1-.055,1.491a.25.25,0,0,1-.25.242" transform="translate(-17.434 1.22)" fill="#2a4470"/>
        <path id="Caminho_20" data-name="Caminho 20" d="M18.481,12.581h0a.248.248,0,0,1-.246-.251q0-.39.01-.775a.249.249,0,0,1,.5.01c-.005.254-.009.511-.011.77a.248.248,0,0,1-.248.246" transform="translate(-17.434 1.762)" fill="#2a4470"/>
        <path id="Caminho_21" data-name="Caminho 21" d="M25.206,18.33c-.06-.35-.11-.723-.153-1.114-.035-.1-.072-.205-.112-.312a4.6,4.6,0,0,1-2.314.747,1.436,1.436,0,1,0-1.85.07,4.427,4.427,0,0,1-2.637-.685l-.081-.028a3.211,3.211,0,0,0,.781,1.906c1.442,1.041,6.692,1.287,6.366-.583" transform="translate(-17.48 2.79)" fill="#003d92" opacity="0.2"/>
        <path id="Caminho_22" data-name="Caminho 22" d="M22.375,15.973a1.436,1.436,0,1,1-1.368-1.5,1.434,1.434,0,0,1,1.368,1.5" transform="translate(-17.093 2.608)" fill="#fff"/>
        <path id="Caminho_23" data-name="Caminho 23" d="M22.375,15.973a1.436,1.436,0,1,1-1.368-1.5,1.434,1.434,0,0,1,1.368,1.5" transform="translate(-17.093 2.608)" fill="#fff"/>
        <path id="Caminho_24" data-name="Caminho 24" d="M20.993,14.772h0a1.187,1.187,0,1,0,.056,0h-.056m0,2.873-.08,0a1.669,1.669,0,1,1,.08,0Z" transform="translate(-17.146 2.555)" fill="#2a4470"/>
      </g>
    </g>
  </g>
</svg>
